<svg xmlns="http://www.w3.org/2000/svg" xmlns:xlink="http://www.w3.org/1999/xlink" width="196" height="29" viewBox="0 0 196 29">
    <defs>
        <rect id="a" width="44" height="29" rx="2"/>
        <rect id="c" width="44" height="29" rx="2"/>
        <rect id="e" width="44" height="29" rx="2"/>
        <rect id="g" width="44" height="29" rx="2"/>
    </defs>
    <g fill="none" fill-rule="evenodd">
        <g>
            <mask id="b" fill="#fff">
                <use xlink:href="#a"/>
            </mask>
            <use fill="#FFF" xlink:href="#a"/>
            <g mask="url(#b)">
                <path fill="#005C9C" d="M19.58 20.152h-2.92l1.826-11.215h2.92L19.58 20.152M14.204 8.937L11.42 16.65l-.329-1.661-.982-5.042s-.119-1.01-1.385-1.01H4.122l-.054.19s1.408.292 3.054 1.282l2.537 9.743H12.7l4.646-11.215h-3.143M33.958 16.185l1.534-4.198.863 4.198h-2.397zm3.213 3.967h2.68L37.515 8.937h-2.347c-1.084 0-1.348.835-1.348.835l-4.355 10.38h3.044l.609-1.666h3.711l.343 1.666zM29.693 11.634l.416-2.41s-1.286-.488-2.626-.488c-1.45 0-4.89.633-4.89 3.713 0 2.897 4.038 2.933 4.038 4.455 0 1.52-3.622 1.25-4.817.29l-.434 2.517s1.303.634 3.296.634c1.992 0 4.998-1.032 4.998-3.84 0-2.916-4.075-3.187-4.075-4.455 0-1.268 2.844-1.105 4.094-.416"/>
                <path fill="#EE9F3F" d="M11.091 14.99l-.982-5.043s-.119-1.01-1.385-1.01H4.122l-.054.19s2.212.458 4.334 2.175c2.028 1.642 2.69 3.688 2.69 3.688"/>
            </g>
        </g>
        <g transform="translate(51)">
            <mask id="d" fill="#fff">
                <use xlink:href="#c"/>
            </mask>
            <use fill="#FFF" xlink:href="#c"/>
            <g fill="#000" fill-rule="nonzero" mask="url(#d)">
                <path d="M14.665 23.37v-1.19c0-.456-.277-.753-.753-.753a.782.782 0 0 0-.674.337c-.14-.218-.337-.337-.635-.337a.64.64 0 0 0-.555.278v-.238h-.416v1.903h.416v-1.05c0-.338.178-.497.456-.497s.416.179.416.496v1.051h.417v-1.05c0-.338.198-.497.456-.497.277 0 .416.179.416.496v1.051h.456zm6.167-1.903h-.674v-.575h-.417v.575h-.376v.376h.376v.873c0 .436.179.694.655.694.178 0 .377-.06.515-.139l-.119-.357a.652.652 0 0 1-.357.1c-.198 0-.277-.12-.277-.318v-.853h.674v-.376zm3.53-.04a.559.559 0 0 0-.496.278v-.238h-.417v1.903h.417V22.3c0-.318.139-.496.396-.496.08 0 .179.02.258.04l.12-.397c-.08-.02-.2-.02-.279-.02zm-5.334.198c-.199-.139-.476-.198-.774-.198-.476 0-.793.238-.793.615 0 .317.238.495.654.555l.199.02c.218.04.337.099.337.198 0 .139-.159.238-.436.238-.278 0-.496-.1-.635-.198l-.198.317c.218.158.515.238.813.238.555 0 .872-.258.872-.615 0-.337-.258-.515-.654-.575l-.198-.02c-.179-.02-.318-.06-.318-.178 0-.139.14-.218.357-.218.238 0 .476.099.595.158l.179-.337zm11.064-.198a.559.559 0 0 0-.496.278v-.238h-.416v1.903h.416V22.3c0-.318.139-.496.397-.496.08 0 .178.02.258.04l.119-.397c-.08-.02-.199-.02-.278-.02zm-5.314.991c0 .575.396.992 1.011.992.278 0 .476-.06.674-.218l-.198-.337a.801.801 0 0 1-.496.178c-.337 0-.575-.238-.575-.615 0-.357.238-.595.575-.614.179 0 .337.06.496.178l.198-.337c-.198-.159-.396-.218-.674-.218-.615 0-1.011.416-1.011.991zm3.847 0v-.951h-.417v.238a.716.716 0 0 0-.595-.278c-.535 0-.951.416-.951.991s.416.992.951.992c.278 0 .476-.1.595-.278v.238h.417v-.952zm-1.527 0c0-.337.218-.614.575-.614.337 0 .575.257.575.614 0 .337-.238.615-.575.615-.357-.02-.575-.278-.575-.615zm-4.977-.991c-.555 0-.952.396-.952.991s.397.992.972.992c.277 0 .555-.08.773-.258l-.198-.297a.948.948 0 0 1-.555.198c-.258 0-.516-.12-.576-.456h1.408v-.159c.02-.615-.337-1.011-.872-1.011zm0 .357c.258 0 .436.158.476.456h-.992c.04-.258.218-.456.516-.456zm10.33.634v-1.705h-.416v.992a.716.716 0 0 0-.595-.278c-.535 0-.952.416-.952.991s.417.992.952.992c.278 0 .476-.1.595-.278v.238h.416v-.952zm-1.526 0c0-.337.218-.614.575-.614.337 0 .575.257.575.614 0 .337-.238.615-.575.615-.357-.02-.575-.278-.575-.615zm-13.92 0v-.951h-.416v.238a.716.716 0 0 0-.595-.278c-.536 0-.952.416-.952.991s.416.992.952.992c.277 0 .476-.1.595-.278v.238h.416v-.952zm-1.547 0c0-.337.219-.614.576-.614.337 0 .575.257.575.614 0 .337-.238.615-.575.615-.357-.02-.576-.278-.576-.615z"/>
            </g>
            <path fill="#FF5F00" fill-rule="nonzero" d="M18.889 7.012h6.246v11.223h-6.246z" mask="url(#d)"/>
            <path fill="#EB001B" fill-rule="nonzero" d="M19.285 12.623c0-2.28 1.071-4.303 2.717-5.611A7.094 7.094 0 0 0 17.6 5.485a7.134 7.134 0 0 0-7.138 7.138 7.134 7.134 0 0 0 7.138 7.138 7.094 7.094 0 0 0 4.402-1.526 7.128 7.128 0 0 1-2.717-5.612z" mask="url(#d)"/>
            <path fill="#F79E1B" fill-rule="nonzero" d="M33.562 12.623a7.134 7.134 0 0 1-7.138 7.138 7.094 7.094 0 0 1-4.402-1.526 7.098 7.098 0 0 0 2.716-5.612c0-2.28-1.07-4.303-2.716-5.611a7.094 7.094 0 0 1 4.402-1.527c3.946 0 7.138 3.212 7.138 7.138z" mask="url(#d)"/>
        </g>
        <g transform="translate(101)">
            <mask id="f" fill="#fff">
                <use xlink:href="#e"/>
            </mask>
            <use fill="#FFF" xlink:href="#e"/>
            <path fill="#1AAF5D" fill-rule="nonzero" d="M28.284 14.858H30.08a1.02 1.02 0 0 1 .119.009 1.264 1.264 0 0 1 .077.011l.012.003a.728.728 0 0 1 .207.08.785.785 0 0 1 .327.349.787.787 0 0 1 .08.359.857.857 0 0 1-.08.36.79.79 0 0 1-.534.428l-.012.002a.378.378 0 0 1-.048.009 1.261 1.261 0 0 1-.148.012H28.284v-1.622zm2.39-1.836a.805.805 0 0 1-.088.568.719.719 0 0 1-.446.325.745.745 0 0 1-.06.013l-.006.002a.493.493 0 0 1-.053.006 1.647 1.647 0 0 1-.118.007H28.284v-1.496H29.932a1.27 1.27 0 0 1 .142.013l.007.001a.745.745 0 0 1 .267.102.728.728 0 0 1 .297.359.74.74 0 0 1 .03.1s-.008-.035 0 0zm3.683-7.76h.012v15.37a3.107 3.107 0 0 1-.339 1.404 3.057 3.057 0 0 1-.386.578l-.03.035-.03.034a3.118 3.118 0 0 1-.058.064l-.03.03-.03.031-.03.03-.03.028a3.15 3.15 0 0 1-.148.131l-.03.025-.03.024-.029.023-.03.022-.03.022-.029.022-.03.02-.03.021-.029.02-.03.02-.03.018a2.853 2.853 0 0 1-.059.037l-.03.017a3.21 3.21 0 0 1-.03.018l-.029.016-.03.017-.03.015-.029.016-.03.015-.03.014-.03.015-.029.013-.03.014-.03.013-.029.013-.03.012-.03.012-.029.011-.03.012-.03.01-.03.011-.029.01-.03.01-.03.01-.029.009-.03.009-.03.008-.029.008-.03.008-.03.008-.03.007-.029.007-.03.007-.03.006-.029.006-.03.006-.03.005-.029.005-.03.005-.03.005-.029.004-.03.004-.03.003-.03.004-.029.003-.03.003-.03.002-.029.002-.03.002-.03.002-.029.001-.03.001h-.03l-.03.001H26.78V17.44H31.595l.03-.001.03-.001.03-.001.029-.002.03-.002.03-.002.029-.002.03-.003.03-.003.03-.003.029-.004.03-.003.03-.005.029-.004.03-.005.03-.006.029-.005.03-.006.03-.007.03-.007.029-.007a2.278 2.278 0 0 0 .119-.033l.03-.009a1.906 1.906 0 0 0 .088-.03l.03-.012.03-.011.03-.013a1.892 1.892 0 0 0 .534-.343 1.445 1.445 0 0 0 .297-.406 1.312 1.312 0 0 0 .119-.403 1.485 1.485 0 0 0 0-.39 1.305 1.305 0 0 0-.178-.495 1.259 1.259 0 0 0-.179-.228 1.41 1.41 0 0 0-.237-.2 1.836 1.836 0 0 0-.357-.19l-.03-.012a2.244 2.244 0 0 0-.029-.011l-.03-.01a2.632 2.632 0 0 0-.118-.04l-.03-.009-.03-.008a2.284 2.284 0 0 0-.148-.036l-.03-.006-.03-.005-.03-.006a2.267 2.267 0 0 0-.03-.005l-.029-.004a2.334 2.334 0 0 0-.03-.005l-.03-.004-.029-.003-.03-.004-.03-.003-.029-.003-.03-.002-.027-.002v-.036l.027-.004.03-.005.03-.005.03-.006.03-.006.029-.006a2.1 2.1 0 0 0 .416-.143 1.753 1.753 0 0 0 .297-.184 1.436 1.436 0 0 0 .297-.321 1.292 1.292 0 0 0 .215-.731 1.506 1.506 0 0 0-.037-.328 1.27 1.27 0 0 0-.208-.45 1.207 1.207 0 0 0-.208-.221 1.438 1.438 0 0 0-.297-.197 1.857 1.857 0 0 0-.327-.13l-.03-.01a2.188 2.188 0 0 0-.059-.015l-.03-.008a2.183 2.183 0 0 0-.059-.014l-.03-.006-.03-.006-.029-.006-.03-.005-.03-.005-.029-.004-.03-.005-.03-.003-.03-.004-.029-.003-.03-.003-.03-.003-.029-.002-.03-.002-.03-.002h-.011l-.018-.002-.03-.001-.03-.002-.03-.002-.029-.001-.03-.001-.03-.001-.029-.001h-.03l-.03-.001H26.78V8.336a3.085 3.085 0 0 1 .48-1.649 2.94 2.94 0 0 1 .06-.09l.03-.042.03-.04.029-.04.03-.039.03-.037.029-.036.03-.035.03-.033.029-.034a3.295 3.295 0 0 1 .06-.062l.029-.03.03-.03.03-.029.03-.028.029-.027.03-.026a3.292 3.292 0 0 1 .118-.1l.03-.023.03-.023a3.212 3.212 0 0 1 .06-.044l.029-.02.03-.021.03-.02.029-.02.03-.019.03-.019.029-.018.03-.017.03-.018.03-.016.029-.017.03-.016.03-.015.029-.015.03-.015.03-.014.029-.014.03-.014.03-.013.03-.013.029-.012.03-.012.03-.012.029-.011.03-.011.03-.01.029-.011.03-.01.03-.01.03-.01.029-.008.03-.009.03-.008.029-.008.03-.008.03-.007.029-.007.03-.007.03-.006.029-.006.03-.006.03-.006.03-.005.029-.004.03-.005.03-.004.029-.004.03-.004.03-.003.029-.004.03-.002.03-.003.03-.002.029-.002.03-.002.03-.001.029-.001.03-.001h.03l.029-.001H34.358z" mask="url(#f)"/>
            <path fill="#227FBB" fill-rule="nonzero" d="M9.665 15.959l-.064-.03V8.335a3.085 3.085 0 0 1 .479-1.647 3.06 3.06 0 0 1 .059-.09l.03-.042.03-.041.029-.04.03-.038.03-.037a2.953 2.953 0 0 1 .059-.071l.03-.034.029-.033.03-.032a2.95 2.95 0 0 1 .059-.061l.03-.03.03-.028.029-.028.03-.027.029-.027.03-.026.03-.025a2.854 2.854 0 0 1 .148-.116l.03-.022a2.813 2.813 0 0 1 .118-.081l.03-.02.03-.018.029-.018.03-.018.029-.017.03-.017.03-.016.029-.016.03-.016.03-.015.029-.015.03-.014.03-.014.029-.014.03-.013.03-.012.029-.013.03-.012.029-.012.03-.01.03-.012.029-.01.03-.011.03-.01.029-.01.03-.009.03-.009.029-.009.03-.008.03-.008.029-.008.03-.007.029-.007.03-.007.03-.006.029-.006.03-.006.03-.006.029-.005.03-.005.03-.004.029-.005.03-.004.03-.003.029-.004.03-.003.03-.003.029-.003.03-.002.029-.002.03-.002.03-.001.029-.001.03-.001h.03a4 4 0 0 0 .029-.001H17.19v15.37a3.102 3.102 0 0 1-.292 1.309 3.035 3.035 0 0 1-.474.721l-.03.034-.03.032-.03.031a3.13 3.13 0 0 1-.118.117l-.03.028-.029.026-.03.027-.03.025-.029.025-.03.024-.03.023-.029.023-.03.023-.03.021-.029.022-.03.02-.03.02-.029.02-.03.02-.029.018-.03.019-.03.017-.029.018a2.682 2.682 0 0 1-.089.05l-.03.015-.03.015-.029.015-.03.014-.03.014-.029.014-.03.013-.03.013-.029.013-.03.012-.029.012-.03.011-.03.011-.029.011-.03.01-.03.01-.029.01-.03.01-.03.009-.029.009-.03.008-.03.008-.029.008-.03.007-.029.007-.03.007-.03.007-.029.006-.03.006-.03.006-.029.005-.03.005-.03.005-.029.004-.03.004-.03.004-.029.003-.03.004-.03.003-.029.002-.03.003-.029.002-.03.002-.03.001-.029.001-.03.001-.03.001H9.602v-6.478l.064.017.03.007.029.007.03.007.03.007.029.007.03.007.03.007.029.006.03.007.03.006.029.007.03.006.03.006.029.006.03.006.029.006.03.006.03.006.029.005.03.006.03.006.029.005.03.005.03.006.029.005.03.005.03.005.029.005.03.005.03.005.029.005.03.005.029.005.03.004.03.005.029.005.03.004.03.004.029.005.03.004.03.004.029.004.03.004.03.004.029.004.03.004.03.004.029.004.03.004.029.003.03.004.03.003.029.004.03.003.03.003.029.004.03.003.03.003.029.003.03.003.03.003.029.003.03.003.029.002.03.003.03.003.029.002.03.003.03.002.029.002.03.003.03.002.029.002.03.002.03.002.029.002.03.002.029.002.03.002.03.001.029.002.03.002.03.001.029.001.03.002.03.001.029.001.03.002h.03l.029.002h.03l.03.002h.029l.03.001h.029l.03.002h.059l.03.001h.119l.029.001h.148l.03-.001h.03l.029-.001.03-.001h.03l.029-.002h.03l.03-.001.029-.001.03-.002.03-.001.029-.001.03-.002.03-.001.029-.002.03-.002.029-.001.03-.002.03-.003.029-.002.03-.002.03-.002.029-.003.03-.002.03-.003.029-.003.03-.003.03-.003.029-.003.03-.003.029-.003.03-.004.03-.003.029-.004.03-.004.03-.004.029-.004.03-.005.03-.004.029-.005.03-.004.03-.005.029-.005.03-.005.03-.006.029-.005.03-.006.029-.006.03-.006.03-.006.029-.006.03-.007.03-.006.029-.007.03-.007.03-.008.029-.007.03-.008.03-.008.029-.007.03-.009.029-.008.03-.01.03-.008.029-.01.03-.009.03-.01.029-.01.03-.01.03-.01.029-.011.03-.011.03-.012.029-.011.03-.012.03-.013.029-.012.03-.014.029-.013.03-.014.03-.014.029-.014.03-.016.03-.015.029-.016a2.807 2.807 0 0 0 .089-.05l.03-.018.03-.018.029-.02.03-.019.029-.02.03-.021.03-.021.029-.023a2.193 2.193 0 0 0 .089-.071l.03-.026.03-.027.029-.027a1.944 1.944 0 0 0 .06-.059l.029-.03.03-.034a1.915 1.915 0 0 0 .355-.581 2.109 2.109 0 0 0 .119-.421 2.653 2.653 0 0 0 .044-.519V11.53H13.911v3.566a1.875 1.875 0 0 1-.037.366 1.586 1.586 0 0 1-.148.407 1.386 1.386 0 0 1-.326.393 1.465 1.465 0 0 1-.563.284l-.03.008a1.8 1.8 0 0 1-.178.037l-.03.005a2.206 2.206 0 0 1-.059.007l-.03.004-.029.002-.03.003a2.272 2.272 0 0 1-.059.004l-.03.001-.03.001h-.029l-.03.001h-.089l-.03-.001-.029-.001h-.03l-.029-.002-.03-.002-.03-.001-.029-.002-.03-.002-.03-.002-.029-.002-.03-.003-.03-.002-.029-.003-.03-.003-.03-.003-.029-.004-.03-.003-.029-.004-.03-.004-.03-.004-.029-.004-.03-.005-.03-.004-.029-.005-.03-.005-.03-.005-.029-.006-.03-.005-.03-.006-.029-.006-.03-.006-.03-.006-.029-.006-.03-.007-.029-.006-.03-.007-.03-.007-.029-.007-.03-.008-.03-.007-.029-.008-.03-.008-.03-.008-.029-.008-.03-.008-.03-.009-.029-.008-.03-.009-.03-.009-.029-.009-.03-.01-.029-.009-.03-.01-.03-.009-.029-.01-.03-.01-.03-.01-.029-.01-.03-.01-.03-.011-.029-.01-.03-.012-.03-.01-.029-.012-.03-.011-.029-.012-.03-.011-.03-.012-.029-.012-.03-.012-.03-.012-.029-.012-.03-.013-.03-.012-.029-.013-.03-.013-.03-.013-.029-.013-.03-.013-.029-.013-.03-.014-.03-.013-.029-.014-.03-.014-.03-.014z" mask="url(#f)"/>
            <path fill="#E94B35" fill-rule="nonzero" d="M18.254 12.308a2.79 2.79 0 0 0-.064.053V8.336a3.085 3.085 0 0 1 .45-1.6 2.94 2.94 0 0 1 .088-.136l.03-.043.03-.04.029-.04.03-.039.03-.037a2.99 2.99 0 0 1 .059-.07l.03-.034.029-.034a3.018 3.018 0 0 1 .089-.093l.03-.03.03-.028.029-.028.03-.027.029-.026c.01-.01.02-.018.03-.026l.03-.025a3.573 3.573 0 0 1 .237-.18 2.989 2.989 0 0 1 .088-.06l.03-.018.03-.018.03-.018.029-.017.03-.017.03-.016.029-.016.03-.016.03-.015.029-.014.03-.015.03-.014.029-.013c.01-.005.02-.01.03-.013.01-.005.02-.01.03-.013l.029-.013.03-.012.03-.012.029-.01.03-.012.029-.01c.01-.004.02-.008.03-.01.01-.004.02-.008.03-.01l.029-.01.03-.01.03-.009.029-.009.03-.008.03-.008.029-.008.03-.007.03-.007.029-.007.03-.006.03-.006.029-.006.03-.006.029-.005.03-.005.03-.004.029-.005.03-.004.03-.003.029-.004.03-.003.03-.003.029-.003.03-.002.03-.002.029-.002.03-.001.03-.001.029-.001h.03l.029-.001H25.779v15.37a3.1 3.1 0 0 1-.292 1.309 2.98 2.98 0 0 1-.207.37l-.03.046a3.216 3.216 0 0 1-.148.2l-.03.036-.03.035a3 3 0 0 1-.029.034l-.03.034-.03.032-.029.031-.03.03a3.065 3.065 0 0 1-.059.06l-.03.027-.029.028-.03.026-.03.027-.029.025-.03.025-.03.023-.029.024-.03.023-.03.022-.029.022-.03.021-.03.021-.029.02-.03.02-.03.02-.029.018-.03.018-.029.018-.03.018-.03.016-.029.017-.03.016-.03.016-.029.015-.03.015-.03.014-.029.014-.03.014-.03.013-.029.013-.03.013-.03.012-.029.012-.03.011-.029.011-.03.011-.03.01-.029.01-.03.01-.03.01-.029.009-.03.008-.03.009-.029.008-.03.008-.03.007-.029.007-.03.007-.03.007-.029.006-.03.006-.029.005-.03.006-.03.005-.029.005-.03.004-.03.004-.029.004-.03.003-.03.004-.029.003-.03.002-.03.003-.029.002-.03.002-.03.001-.029.001-.03.001-.029.001H18.19V16.61a2.854 2.854 0 0 0 .123.1l.03.022.03.022a3.04 3.04 0 0 0 .059.042l.03.02.029.02.03.02.03.018.029.018.03.018.03.018.029.017.03.017.03.016.029.016.03.016.029.016.03.015.03.014.029.015.03.014.03.013.029.014.03.013.03.013.029.013.03.012.03.012.029.012.03.012.029.011.03.011.03.011.029.01.03.011.03.01.029.01.03.01.03.01.029.01.03.008.03.01.029.008.03.009.03.008.029.008.03.009.029.007.03.008.03.008.029.007.03.007.03.008.029.006.03.007.03.007.029.006.03.007.03.006.029.006.03.006.03.005.029.006.03.005.029.006.03.005.03.005.029.005.03.005.03.005.029.004.03.005.03.004.029.004.03.004.03.004.029.004.03.004.03.004.029.003.03.004.029.003.03.003.03.003.029.003.03.003.03.003.029.003.03.003.03.002.029.003.03.002.03.002.029.002.03.002.03.002.029.002.03.002.029.002.03.001.03.002.029.001.03.002.03.001.029.001.03.001.03.001.029.001.03.001.03.001h.029l.03.002h.059l.03.001h.089l.029.001h.208l.03-.001h.029l.03-.001h.03l.029-.002h.03l.029-.001.03-.001h.03l.029-.002h.03l.03-.002.029-.001.03-.001.03-.002h.014l.015-.001.03-.001.03-.002.029-.002.03-.001.029-.002.03-.002.03-.002.029-.002.03-.003.03-.002.029-.002.03-.003.03-.003.029-.002.03-.003.03-.003.029-.003.03-.003.03-.003.029-.003.03-.003.029-.004.03-.003.03-.004.029-.003.03-.004.03-.004.029-.003.03-.004.03-.004.029-.004.03-.004.03-.004.029-.004.03-.005.03-.004.029-.004.03-.005.029-.004.03-.005.03-.005.029-.004.03-.005.03-.005.029-.005.03-.005.03-.005.029-.005.03-.005.03-.005.029-.005.03-.006.03-.005.029-.006.03-.005.029-.006.03-.005.03-.006.029-.006.03-.005.03-.006.029-.006.03-.006.03-.006.029-.006.03-.006.03-.006.029-.007.03-.006.03-.006.029-.007.03-.006.029-.007.03-.006.03-.007.029-.007.03-.007.03-.007.029-.007.03-.007.029-.007v-1.3l-.03.014-.03.015-.029.014-.03.015-.029.014-.03.014-.03.014-.029.014-.03.013-.03.014-.029.013-.03.013-.03.013-.029.013-.03.013-.03.013-.029.012-.03.012-.03.012-.029.012-.03.012-.029.012-.03.011-.03.012-.029.01-.03.012-.03.01-.029.011-.03.01-.03.011-.029.01-.03.01-.03.01-.029.01-.03.009-.03.01-.029.008-.03.01-.029.008-.03.009-.03.008-.029.008-.03.008-.03.008-.029.008-.03.008-.03.007-.029.007-.03.008-.03.007-.029.006-.03.007-.03.006-.029.007-.03.006-.029.006-.03.005-.03.006-.029.005-.03.006-.03.005-.029.005-.03.005-.03.004-.029.005-.03.004-.03.004-.029.004-.03.004-.03.004-.029.003-.03.004-.029.003-.03.003-.03.003-.029.002-.03.003-.03.002-.017.002h-.012l-.03.003-.03.002-.029.001-.03.002-.03.001-.029.001-.03.001h-.03l-.029.001h-.148l-.03-.002h-.03l-.029-.002-.03-.002-.03-.001-.029-.002-.03-.003-.03-.002-.029-.003-.03-.003-.03-.004-.029-.003-.03-.004-.029-.004-.03-.005-.03-.005-.029-.004-.03-.006-.03-.006-.029-.006-.03-.006-.03-.007-.029-.007-.03-.007-.03-.008-.029-.008-.03-.009c-.01-.002-.02-.006-.029-.009a2.606 2.606 0 0 1-.06-.019l-.029-.01-.03-.01-.03-.011-.029-.012-.03-.012-.03-.012-.029-.013-.03-.014a2.53 2.53 0 0 1-.088-.044l-.03-.015-.03-.017-.03-.017a2.199 2.199 0 0 1-.059-.036l-.03-.02-.029-.02a1.83 1.83 0 0 1-.03-.02l-.03-.022-.029-.023a1.982 1.982 0 0 1-.03-.024l-.03-.025a1.765 1.765 0 0 1-.088-.08l-.03-.03a1.694 1.694 0 0 1-.207-.257 1.865 1.865 0 0 1-.267-.62 2.33 2.33 0 0 1-.06-.357 2.881 2.881 0 0 1 .06-.89 2.193 2.193 0 0 1 .148-.412 1.839 1.839 0 0 1 .356-.494 1.892 1.892 0 0 1 .06-.056l.029-.026.03-.024a1.983 1.983 0 0 1 .059-.047l.03-.022.029-.02.03-.02.03-.02a1.82 1.82 0 0 1 .059-.036l.03-.017.029-.017.03-.016a2.236 2.236 0 0 1 .088-.044l.03-.013.03-.013.03-.013.03-.012.029-.011.03-.011.029-.01a2.616 2.616 0 0 1 .119-.038l.03-.01.029-.008.03-.007.03-.008.029-.007.03-.006.03-.007.029-.006.03-.005.03-.006.029-.005.03-.005.029-.004.03-.004.03-.004.029-.004.03-.003.03-.003.029-.003.03-.003.03-.002.029-.002.03-.002.03-.002h.029l.03-.002h.03l.029-.001h.059l.03-.001h.059l.03.001.03.001.029.001.03.002.03.001.029.002.03.002.03.002h.01l.019.002.03.002.029.003.03.003.03.002.029.003.03.004.03.003.029.003.03.004.03.004.029.004.03.004.03.004.029.005.03.004.03.005.029.005.03.005.029.005.03.005.03.006.029.006.03.006.03.006.029.006.03.006.03.007.029.007.03.006.03.007.029.008.03.007.03.008.029.007.03.008.029.008.03.009.03.008.029.009.03.008.03.01.029.009.03.009.03.01.029.009.03.01.03.01.029.01.03.01.03.01.029.011.03.011.029.011.03.011.03.012.029.011.03.012.03.012.029.012.03.012.03.012.029.013.03.013.03.012.029.013.03.014.03.013.029.013.03.014.029.014.03.014.03.014.029.014.03.014.03.015.029.014.03.015.029.015V11.74l-.03-.008-.03-.007-.029-.007-.03-.007-.029-.007-.03-.006-.03-.007-.029-.007-.03-.006-.03-.007-.029-.006-.03-.006-.03-.007-.029-.006-.03-.006-.03-.006-.029-.006-.03-.006-.03-.006-.029-.006-.03-.006-.029-.006-.03-.006-.03-.005-.029-.006-.03-.005-.03-.006-.029-.005-.03-.006-.03-.005-.029-.005-.03-.005-.03-.005-.029-.006-.03-.005-.03-.004-.029-.005-.03-.005-.029-.005-.03-.005-.03-.004-.029-.005-.03-.004-.03-.005-.029-.004-.03-.005-.03-.004-.029-.004-.03-.004-.03-.004-.029-.004-.03-.004-.03-.004-.029-.004-.03-.003-.029-.004-.03-.004-.03-.003-.029-.003-.03-.004-.03-.003-.029-.003-.03-.003-.03-.003-.029-.003-.03-.003-.03-.003-.029-.003-.03-.002-.03-.003-.029-.002-.03-.002-.029-.003-.03-.002-.03-.002-.029-.002-.03-.002-.03-.001-.029-.002-.03-.001-.03-.002h-.014l-.015-.001-.03-.001-.03-.002h-.029l-.03-.002h-.03l-.029-.002h-.03l-.029-.002h-.03l-.03-.001h-.029l-.03-.001-.03-.001h-.059l-.03-.001H21.693l-.029.001h-.03l-.03.001-.029.001h-.03l-.03.002h-.029l-.03.002-.03.001-.029.001-.03.001-.029.002-.03.001-.03.002-.029.002-.03.001-.03.002-.029.002-.03.002-.03.002-.029.002-.03.002-.03.003-.029.002-.03.003-.03.002-.029.003-.03.003-.029.003-.03.003-.03.003-.029.003-.03.004-.03.003-.029.004-.03.003-.03.004-.029.004-.03.004-.03.004-.029.004-.03.005-.03.004-.029.005-.03.004-.029.005-.03.005-.03.005-.029.005-.03.006-.03.005-.029.006-.03.006-.03.006-.029.006-.03.006-.03.006-.029.007-.03.006-.03.007-.029.007-.03.007-.029.007-.03.008-.03.007-.029.008-.03.008-.03.008-.029.008-.03.009-.03.008-.029.01-.03.008-.03.01-.029.009-.03.01-.03.01c-.009.002-.019.006-.029.01l-.03.01-.029.01-.03.01-.03.011-.029.012-.03.01-.03.013-.029.011-.03.013-.03.012-.029.012-.03.013-.03.014-.029.013-.03.014-.029.014-.03.014-.03.015-.029.015-.03.015-.03.016-.029.016-.03.017-.03.016-.029.018a3.486 3.486 0 0 0-.06.035l-.029.019-.03.019-.03.019-.029.02-.03.02a3.496 3.496 0 0 0-.059.042l-.03.022a3.125 3.125 0 0 0-.088.069z" mask="url(#f)"/>
        </g>
        <g transform="translate(152)">
            <mask id="h" fill="#fff">
                <use xlink:href="#g"/>
            </mask>
            <use fill="#FFF" xlink:href="#g"/>
            <g fill-rule="nonzero" mask="url(#h)">
                <path fill="#E21836" d="M13.005 5.7h7.015c.98 0 1.589.798 1.36 1.78l-3.266 14.024c-.23.98-1.211 1.778-2.191 1.778H8.908c-.978 0-1.589-.799-1.36-1.778l3.268-14.023c.228-.983 1.208-1.78 2.189-1.78"/>
                <path fill="#00447C" d="M19.436 5.7h8.068c.98 0 .538.798.308 1.78l-3.266 14.024c-.23.98-.158 1.778-1.14 1.778H15.34c-.981 0-1.588-.799-1.358-1.778l3.266-14.023c.232-.983 1.21-1.78 2.19-1.78"/>
                <path fill="#007B84" d="M27.184 5.7H34.2c.98 0 1.59.798 1.36 1.78l-3.266 14.024c-.23.98-1.212 1.778-2.193 1.778H23.09c-.981 0-1.59-.799-1.36-1.778l3.266-14.023c.229-.983 1.208-1.78 2.19-1.78"/>
                <path fill="#FEFEFE" d="M14.837 10.194c-.722.008-.935 0-1.003-.016l-.514 2.372c-.105.454-.181.778-.44.987a.784.784 0 0 1-.518.18c-.32 0-.506-.158-.538-.46l-.006-.103.098-.612s.51-2.047.602-2.317a.197.197 0 0 0 .008-.03c-.995.008-1.171 0-1.183-.017-.007.022-.032.149-.032.149l-.521 2.307-.045.195-.087.64c0 .19.037.345.112.476.237.415.915.478 1.299.478.494 0 .958-.105 1.27-.297.545-.321.687-.824.814-1.27l.059-.229s.526-2.126.615-2.402c.004-.015.005-.023.01-.03zm1.79 1.715c-.126 0-.358.03-.566.133-.076.039-.147.083-.223.128l.068-.246-.037-.041c-.442.09-.54.101-.949.159l-.034.022c-.047.393-.09.689-.265 1.46-.067.285-.136.572-.206.856l.02.036c.417-.022.544-.022.907-.016l.03-.032c.046-.236.052-.292.154-.77.048-.228.148-.727.198-.904a.677.677 0 0 1 .266-.084c.203 0 .179.178.17.249a8.912 8.912 0 0 1-.158.84l-.051.215c-.035.16-.074.313-.11.471l.016.031c.412-.022.538-.022.89-.016l.04-.032c.064-.369.083-.468.196-1.006l.057-.247c.11-.483.165-.729.082-.928-.088-.224-.3-.278-.494-.278zm2.001.506c-.219.042-.359.07-.497.088-.138.022-.272.042-.484.072l-.017.015-.015.012c-.022.158-.038.294-.067.454a8.322 8.322 0 0 1-.125.625c-.048.207-.073.28-.1.352-.027.073-.056.144-.11.347l.013.02.01.016c.198-.009.327-.016.46-.017.133-.005.271 0 .484.001l.019-.015.02-.017c.03-.183.035-.233.054-.322.019-.096.05-.23.13-.585.037-.167.078-.333.117-.503.04-.17.082-.337.122-.504l-.006-.02-.008-.019zm.005-.682c-.2-.118-.549-.08-.784.082-.234.159-.26.384-.062.503.195.115.546.08.779-.083.234-.163.263-.386.067-.502zm1.204 2.72c.402 0 .815-.11 1.126-.44.239-.267.349-.665.386-.828.124-.543.028-.796-.093-.95-.184-.235-.508-.31-.845-.31-.202 0-.685.02-1.061.367-.27.25-.396.59-.471.916-.076.332-.164.93.386 1.152.17.073.414.093.572.093zm-.032-1.22c.093-.411.203-.756.482-.756.22 0 .236.257.138.669-.017.091-.097.432-.206.576-.075.107-.165.172-.264.172-.029 0-.204 0-.207-.26 0-.128.025-.259.057-.401zm2.551 1.167l.032-.032c.044-.236.052-.292.15-.77.05-.228.152-.727.2-.904.091-.042.18-.084.267-.084.203 0 .178.178.17.249a8.077 8.077 0 0 1-.159.84l-.048.215c-.037.16-.077.313-.112.471l.015.031a9.74 9.74 0 0 1 .889-.016l.042-.032c.062-.37.08-.468.195-1.006l.056-.247c.11-.483.167-.728.085-.928-.091-.224-.304-.278-.496-.278-.127 0-.36.03-.567.133a3.77 3.77 0 0 0-.221.128l.063-.246-.034-.041c-.441.09-.542.101-.95.159l-.031.023c-.05.392-.09.687-.265 1.46a97.28 97.28 0 0 1-.206.855l.019.036c.418-.022.543-.022.906-.016zm3.038.016c.026-.126.18-.879.182-.879 0 0 .131-.551.14-.571 0 0 .04-.058.082-.08h.061c.574 0 1.223 0 1.731-.375.346-.256.583-.635.688-1.095.028-.113.048-.247.048-.381a.802.802 0 0 0-.138-.488c-.259-.362-.775-.369-1.371-.372l-.294.003c-.763.01-1.069.007-1.194-.009l-.031.155-.273 1.268-.685 2.82c.666-.008.94-.008 1.054.004zm.506-2.25l.29-1.258.009-.065.004-.05.116.012.613.053c.237.092.334.328.266.635a.924.924 0 0 1-.479.632c-.193.097-.43.105-.673.105h-.158l.012-.063zm1.81 1.09c-.077.327-.166.925.381 1.138.175.075.331.097.49.089.168-.01.323-.094.467-.215l-.039.15.025.032c.393-.017.515-.017.942-.014l.038-.029c.063-.366.121-.721.283-1.421l.238-1.002-.012-.036c-.44.081-.558.099-.981.159l-.033.026-.012.1a.605.605 0 0 0-.309-.255c-.188-.074-.63.022-1.01.368-.268.247-.396.585-.469.91zm.924.02c.094-.403.202-.745.483-.745.177 0 .27.164.251.443a14.2 14.2 0 0 1-.05.226c-.028.12-.059.239-.088.358a.867.867 0 0 1-.104.21c-.072.101-.244.165-.343.165-.028 0-.2 0-.207-.255a1.753 1.753 0 0 1 .058-.402zm4.827-1.332l-.034-.039c-.435.089-.514.103-.914.157l-.03.03-.004.018-.002-.007c-.298.688-.289.54-.531 1.08l-.003-.066-.06-1.173-.039-.039c-.456.089-.467.103-.888.157l-.033.03c-.005.013-.005.029-.007.045l.002.006c.053.27.04.21.093.634.025.209.058.418.082.624.042.345.065.514.116 1.04-.285.47-.352.647-.626 1.06l.002.004-.193.305c-.022.032-.042.054-.07.063a.291.291 0 0 1-.127.018h-.106l-.16.529.546.01c.32-.002.52-.152.629-.353l.343-.587h-.006l.036-.042c.23-.496 1.984-3.504 1.984-3.504zm-5.752 6.94h-.23l.855-2.83h.284l.09-.292.009.324c-.011.2.147.378.56.349h.48l.165-.545h-.18c-.104 0-.152-.026-.146-.082l-.01-.33H28.7v.002c-.287.006-1.143.027-1.317.073-.21.054-.43.213-.43.213l.086-.292h-.83l-.172.58-.867 2.873H25l-.165.541h1.653l-.056.18h.815l.054-.18h.228l.18-.584zm-.678-2.255c-.133.037-.38.148-.38.148l.22-.723h.66l-.16.527s-.203.012-.34.048zm.013 1.033s-.207.026-.343.057c-.135.04-.386.169-.386.169l.227-.753h.662l-.16.527zm-.37 1.229h-.66l.191-.636h.66l-.19.636zm1.593-1.756h.953l-.137.444h-.966l-.145.485h.846l-.64.9a.264.264 0 0 1-.13.109.38.38 0 0 1-.172.05h-.234l-.161.53h.613a.745.745 0 0 0 .646-.335l.439-.6.094.61c.02.114.102.18.158.206.061.031.125.084.214.092.096.004.166.007.212.007h.301l.181-.594h-.119c-.068 0-.185-.012-.205-.033-.02-.026-.02-.066-.031-.127l-.096-.611h-.391l.171-.204h.964l.149-.485h-.893l.14-.444h.889l.165-.547h-2.653l-.162.547zm-8.05 1.88l.222-.741h.914l.168-.55h-.916l.14-.456h.894l.166-.533h-2.238l-.162.533h.508l-.135.456h-.51l-.169.56h.508l-.296.979c-.04.13.019.179.056.239a.245.245 0 0 0 .164.12c.09.02.15.031.234.031h1.03l.184-.61-.456.063c-.089 0-.333-.01-.306-.092zm.105-3.544l-.232.419a.486.486 0 0 1-.135.174c-.035.022-.105.032-.207.032h-.12l-.162.535h.401a.91.91 0 0 0 .412-.106c.077-.04.097-.017.155-.074l.136-.117h1.254l.166-.558h-.918l.16-.305h-.91zm1.85 3.554c-.02-.03-.005-.085.027-.198l.343-1.134h1.219c.178-.003.306-.005.39-.01a.797.797 0 0 0 .293-.1.549.549 0 0 0 .213-.196c.052-.073.137-.232.21-.477l.43-1.435-1.264.007s-.39.057-.561.12c-.173.072-.42.27-.42.27l.114-.394h-.782l-1.094 3.628c-.039.141-.065.243-.07.305-.003.066.083.131.138.18.066.05.162.042.255.05.098.008.237.012.429.012h.6l.184-.622-.537.05a.141.141 0 0 1-.116-.056zm.591-2.098h1.28l-.081.255c-.011.006-.039-.013-.17.003h-1.108l.079-.258zm.256-.856h1.292l-.093.307s-.609-.006-.706.012c-.43.074-.68.304-.68.304l.187-.623zm.972 1.965a.137.137 0 0 1-.051.079c-.026.017-.068.023-.13.023h-.183l.01-.311h-.759l-.03 1.519c-.001.11.01.173.09.224.08.063.327.071.66.071h.475l.171-.568-.414.023-.137.008c-.019-.008-.037-.016-.057-.036-.017-.017-.047-.007-.042-.116l.003-.39.434-.017a.563.563 0 0 0 .42-.15c.082-.069.109-.149.14-.257l.072-.345h-.596l-.076.243z"/>
            </g>
        </g>
    </g>
</svg>